<?xml version="1.0" encoding="UTF-8" standalone="no"?>
<!DOCTYPE svg PUBLIC "-//W3C//DTD SVG 1.1//EN" "http://www.w3.org/Graphics/SVG/1.1/DTD/svg11.dtd">
<svg width="100%" height="100%" viewBox="0 0 346 346" version="1.1" xmlns="http://www.w3.org/2000/svg" xmlns:xlink="http://www.w3.org/1999/xlink" xml:space="preserve" xmlns:serif="http://www.serif.com/" style="fill-rule:evenodd;clip-rule:evenodd;stroke-linejoin:round;stroke-miterlimit:2;">
    <g transform="matrix(1,0,0,1,-77.0001,-629.36)">
        <path d="M269.73,630.56C174.844,619.665 89.09,687.754 78.2,782.64C67.305,877.526 135.394,963.28 230.28,974.17C325.166,985.06 410.92,916.976 421.81,822.09C432.705,727.204 364.616,641.45 269.73,630.56ZM267.955,646.015C354.306,655.93 416.265,733.968 406.355,820.315C396.44,906.666 318.402,968.625 232.055,958.715C145.704,948.8 83.745,870.762 93.655,784.415C103.57,698.064 181.608,636.105 267.955,646.015Z" style="fill:rgb(219, 219, 219);fill-opacity:0.94;fill-rule:nonzero;"/>
    </g>
    <g transform="matrix(1,0,0,1,-77,-629.36)">
        <path d="M345.92,701C345.255,700.99 344.614,701.25 344.143,701.72C343.394,702.471 343.211,703.626 343.691,704.572L339.247,709.016C331.763,711.446 295.212,723.77 278.025,738.099C259.873,753.232 235.606,782.698 216.794,797.212L192.245,804.441C197.826,794.751 200.491,784.256 200.491,784.256C200.491,784.256 187.605,787.398 177.252,794.257C168.133,800.297 148.494,819.557 143.717,824.283L142.222,822.788L138.353,826.657L141.045,829.349C140.429,830.341 134.018,840.664 131.025,846.425C128.758,850.79 126.664,858.083 126.664,858.083C126.664,858.083 133.956,855.989 138.322,853.722C144.083,850.729 154.407,844.318 155.398,843.702L158.09,846.394L161.959,842.525L160.456,841.022C161.396,840.066 161.989,839.474 164.144,837.248L176.642,839.62C193.599,842.839 181.686,860.837 185.098,864.249C188.509,867.66 206.509,855.748 209.729,872.705L212.099,885.184C209.872,887.348 209.278,887.943 208.323,888.887L206.872,887.436L203.001,891.307L205.693,894C205.076,894.992 198.668,905.315 195.675,911.076C193.408,915.441 191.314,922.732 191.314,922.732C191.314,922.732 198.604,920.637 202.97,918.37C208.731,915.378 219.055,908.969 220.048,908.352L222.738,911.042L226.607,907.173L225.062,905.628C229.78,900.84 249.002,881.164 255.023,872.026C261.858,861.65 265.091,848.856 265.091,848.856C265.091,848.856 254.602,851.426 244.946,856.965L252.135,832.553C266.649,813.741 296.115,789.475 311.248,771.322C325.577,754.135 337.901,717.584 340.331,710.1L344.774,705.656C345.721,706.136 346.875,705.953 347.627,705.203C348.582,704.248 348.582,702.677 347.627,701.722C347.174,701.269 346.562,701.011 345.922,701.002L345.92,701ZM290.048,747.521C293.156,747.567 296.127,748.823 298.325,751.022C302.961,755.658 302.961,763.287 298.325,767.923C296.085,770.164 293.042,771.424 289.874,771.424C286.705,771.424 283.662,770.164 281.422,767.923C276.786,763.287 276.786,755.658 281.422,751.022C283.705,748.738 286.819,747.474 290.048,747.521L290.048,747.521ZM143.628,831.93L152.819,841.121C151.413,841.922 146.592,844.661 143.135,846.457C140.238,847.962 134.48,850.269 134.48,850.269C134.48,850.269 136.789,844.511 138.294,841.613C140.089,838.156 142.827,833.336 143.628,831.93L143.628,831.93ZM208.277,896.582L217.465,905.768C216.058,906.57 211.24,909.309 207.784,911.104C204.887,912.609 199.129,914.917 199.129,914.917C199.129,914.917 201.436,909.161 202.941,906.263C204.735,902.808 207.474,897.99 208.277,896.582L208.277,896.582Z" style="fill:rgb(219, 219, 219);fill-opacity:0.94;"/>
    </g>
</svg>
